<?xml version="1.0" encoding="utf-8"?>
<!-- Generator: Adobe Illustrator 23.0.6, SVG Export Plug-In . SVG Version: 6.00 Build 0)  -->
<svg version="1.1" id="Warstwa_1" xmlns="http://www.w3.org/2000/svg" xmlns:xlink="http://www.w3.org/1999/xlink" x="0px" y="0px"
	 viewBox="0 0 6 11" style="enable-background:new 0 0 6 11;" xml:space="preserve">
<style type="text/css">
	.st0{fill-rule:evenodd;clip-rule:evenodd;}
</style>
<path id="_kopia_3" class="st0" d="M1.5,0.3l4.2,4.5c0.4,0.4,0.4,1.1,0,1.5l-4.2,4.4l0,0C1.3,10.9,1.1,11,0.9,11C0.4,11,0,10.5,0,10
	c0-0.3,0.1-0.6,0.3-0.8l0,0l3.5-3.7L0.3,1.8l0,0C0.1,1.6,0,1.3,0,1.1c0-0.5,0.4-1,0.9-1C1.1,0,1.3,0.1,1.5,0.3L1.5,0.3L1.5,0.3z"/>
</svg>
