<?xml version="1.0" encoding="utf-8"?>
<!-- Generator: Adobe Illustrator 23.0.6, SVG Export Plug-In . SVG Version: 6.00 Build 0)  -->
<svg version="1.1" id="Capa_1" xmlns="http://www.w3.org/2000/svg" xmlns:xlink="http://www.w3.org/1999/xlink" x="0px" y="0px"
	 viewBox="0 0 255 255" style="enable-background:new 0 0 255 255;" xml:space="preserve">
<g>
	<g>
		<path d="M206.2,0H48.8C21.9,0,0,21.9,0,48.8v157.4C0,233.1,21.9,255,48.8,255h78.7c2.8,0,5-2.2,5-5v-38.6c0-2.8-2.2-5-5-5
			c-2.8,0-5,2.2-5,5V245H48.8C27.4,245,10,227.6,10,206.2V48.8C10,27.4,27.4,10,48.8,10h157.4c21.4,0,38.8,17.4,38.8,38.8v157.4
			c0,21.4-17.4,38.8-38.8,38.8h-31.9v-87.9h28.9c2.6,0,4.7-1.9,5-4.5l3.6-35.6c0.1-1.4-0.3-2.8-1.3-3.8c-0.9-1-2.3-1.6-3.7-1.6
			h-32.5V92.9c0-3.4,1.1-4.6,4-4.6h28.3c2.8,0,5-2.2,5-5V48.6c0-2.8-2.2-5-5-5h-37.1c-21,0-32.2,9.2-37.8,17
			c-7.9,10.8-9.1,23.6-9.1,30.3v20.9H98.1c-2.8,0-5,2.2-5,5v35.4c0,2.8,2.2,5,5,5h24.4v60.2c0,2.8,2.2,5,5,5c2.8,0,5-2.2,5-5v-65.2
			c0-2.8-2.2-5-5-5h-24.4v-25.4h24.4c2.8,0,5-2.2,5-5V90.9c0-11.2,3.6-37.3,37-37.3h32.1v24.7h-23.3c-6.4,0-13.9,3.8-13.9,14.6v23.7
			c0,2.8,2.2,5,5,5h31.9l-2.6,25.6h-29.4c-2.8,0-5,2.2-5,5V250c0,2.8,2.2,5,5,5h36.9c26.9,0,48.8-21.9,48.8-48.8V48.8
			C255,21.9,233.1,0,206.2,0z"/>
	</g>
</g>
</svg>
