<?xml version="1.0" encoding="utf-8"?>
<!-- Generator: Adobe Illustrator 23.0.6, SVG Export Plug-In . SVG Version: 6.00 Build 0)  -->
<svg version="1.1" id="Capa_1" xmlns="http://www.w3.org/2000/svg" xmlns:xlink="http://www.w3.org/1999/xlink" x="0px" y="0px"
	 viewBox="-365.1 0 255 255" style="enable-background:new -365.1 0 255 255;" xml:space="preserve">
<g>
	<g>
		<path d="M-158.9,0h-157.4c-26.9,0-48.8,21.9-48.8,48.8v157.4c0,26.9,21.9,48.8,48.8,48.8h49.3c-1.4-3.1-2.4-6.5-2.9-10h-46.4
			c-21.4,0-38.8-17.4-38.8-38.8V48.8c0-21.4,17.4-38.8,38.8-38.8h157.4c21.4,0,38.8,17.4,38.8,38.8v157.4
			c0,21.4-17.4,38.8-38.8,38.8h-123.2c-2,3-4.2,6-6.6,8.9c-0.2,0.4-0.5,0.7-0.7,1.1h130.5c26.9,0,48.8-21.9,48.8-48.8V48.8
			C-110.1,21.9-132,0-158.9,0z"/>
	</g>
</g>
<path d="M-237.6,62.7c-35.7,0-64.8,29.1-64.8,64.8s29.1,64.8,64.8,64.8c35.7,0,64.8-29.1,64.8-64.8S-201.9,62.7-237.6,62.7z
	 M-237.6,178.4c-28.1,0-50.9-22.8-50.9-50.9c0-28.1,22.8-50.9,50.9-50.9c28.1,0,50.9,22.8,50.9,50.9
	C-186.7,155.6-209.5,178.4-237.6,178.4z"/>
<path d="M-167.2,35.7c-10.6,0-19.1,8.6-19.1,19.1c0,10.6,8.6,19.2,19.1,19.2c10.6,0,19.2-8.6,19.2-19.2
	C-148.1,44.3-156.7,35.7-167.2,35.7z M-167.2,61.7c-3.8,0-6.8-3.1-6.8-6.8c0-3.8,3.1-6.8,6.8-6.8c3.8,0,6.8,3.1,6.8,6.8
	C-160.4,58.6-163.5,61.7-167.2,61.7z"/>
</svg>
