<?xml version="1.0" encoding="utf-8"?>
<!-- Generator: Adobe Illustrator 23.0.6, SVG Export Plug-In . SVG Version: 6.00 Build 0)  -->
<svg version="1.1" id="Warstwa_1" xmlns="http://www.w3.org/2000/svg" xmlns:xlink="http://www.w3.org/1999/xlink" x="0px" y="0px"
	 viewBox="479.8 1527.4 25 30" style="enable-background:new 479.8 1527.4 25 30;" xml:space="preserve">
<g>
	<path d="M498.1,1537.8v-4.7c0-3.1-2.5-5.7-5.7-5.7s-5.7,2.5-5.7,5.7v4.7h-0.6c0.6,0.3,1.2,0.6,1.7,0.9c0.1,0,0.3,0,0.4,0
		c1.3,0,2.4,0.2,3.5,0.5c1.1-0.4,2.4-0.7,3.8-0.7c0.8,0,1.5,0.1,2.2,0.2c0.2-0.3,0.4-0.7,0.7-1H498.1z M496.2,1537.8h-7.6v-4.7
		c0-2.1,1.7-3.8,3.8-3.8c2.1,0,3.8,1.7,3.8,3.8V1537.8z"/>
	<path d="M501,1539.7c1,0,1.7,0.8,1.7,1.7v12.1c0,1-0.8,1.7-1.7,1.7h-17.3c-1,0-1.7-0.8-1.7-1.7v-12.1c0-1,0.8-1.7,1.7-1.7H501
		 M501,1537.6h-17.3c-2.1,0-3.8,1.7-3.8,3.8v12.1c0,2.1,1.7,3.8,3.8,3.8H501c2.1,0,3.8-1.7,3.8-3.8v-12.1
		C504.8,1539.4,503.1,1537.6,501,1537.6L501,1537.6z"/>
	<path d="M491.4,1550v2c0,0.5,0.4,0.9,0.9,0.9c0.5,0,0.9-0.4,0.9-0.9v-2c1.6-0.4,2.8-1.9,2.8-3.6c0-2.1-1.7-3.8-3.8-3.8
		c-2.1,0-3.8,1.7-3.8,3.8C488.5,1548.1,489.8,1549.6,491.4,1550z M492.3,1544.5c1,0,1.9,0.8,1.9,1.9c0,1-0.9,1.9-1.9,1.9
		c-1,0-1.9-0.8-1.9-1.9C490.4,1545.3,491.3,1544.5,492.3,1544.5z"/>
</g>
</svg>
