<?xml version="1.0" encoding="utf-8"?>
<!-- Generator: Adobe Illustrator 23.0.6, SVG Export Plug-In . SVG Version: 6.00 Build 0)  -->
<svg version="1.1" id="Capa_1" xmlns="http://www.w3.org/2000/svg" xmlns:xlink="http://www.w3.org/1999/xlink" x="0px" y="0px"
	 viewBox="-376.7 229.3 66.9 79.4" style="enable-background:new -376.7 229.3 66.9 79.4;" xml:space="preserve">
<g>
	<g>
		<g>
			<g>
				<path d="M-329.6,275.9l-1.7-3.2v-8c0-4.9-3.3-9.1-7.8-10.4V252c0-1.7-1.4-3-3-3c-1.7,0-3,1.4-3,3v2.3c-4.5,1.3-7.8,5.5-7.8,10.4
					v8l-1.7,3.2c-0.3,0.6-0.3,1.4,0,2c0.4,0.6,1,1,1.7,1h6.8c0.1,2.1,1.9,3.8,4,3.8c2.1,0,3.9-1.7,4-3.8h6.8c0.7,0,1.3-0.4,1.7-1
					C-329.3,277.3-329.3,276.5-329.6,275.9z M-343.6,252c0-0.8,0.6-1.4,1.4-1.4c0.8,0,1.4,0.6,1.4,1.4v1.9c-0.5-0.1-0.9-0.1-1.4-0.1
					c-0.5,0-1,0-1.4,0.1V252L-343.6,252z M-351.4,264.7c0-5.1,4.2-9.3,9.3-9.3c5.1,0,9.3,4.2,9.3,9.3v7.3h-18.5V264.7z M-342.2,281
					c-1.2,0-2.3-1-2.4-2.2h4.8C-339.9,280.1-340.9,281-342.2,281z M-331,277.1c0,0.1-0.1,0.2-0.3,0.2H-353c-0.2,0-0.3-0.1-0.3-0.2
					c0-0.1-0.1-0.2,0-0.4l1.6-3h19.1l1.6,3C-330.9,276.9-331,277-331,277.1z"/>
				<path d="M-342.2,282.8c-2.2,0-3.9-1.6-4.2-3.8h-6.7c-0.8,0-1.5-0.4-1.9-1.1c-0.4-0.7-0.4-1.5-0.1-2.2l1.7-3.2v-7.9
					c0-4.8,3.2-9.2,7.8-10.6V252c0-1.8,1.4-3.2,3.2-3.2s3.2,1.4,3.2,3.2v2.1c4.6,1.4,7.8,5.7,7.8,10.6v7.9l1.7,3.2
					c0.4,0.7,0.3,1.5-0.1,2.2c-0.4,0.7-1.1,1.1-1.9,1.1h-6.7C-338.2,281.2-340,282.8-342.2,282.8z M-342.2,249.2
					c-1.6,0-2.8,1.3-2.8,2.8v2.4l-0.1,0c-4.5,1.3-7.7,5.5-7.7,10.2l0,8.1l-1.7,3.2c-0.3,0.6-0.3,1.2,0,1.8c0.3,0.5,0.9,0.9,1.5,0.9
					h7l0,0.2c0.1,2,1.8,3.6,3.8,3.6c2,0,3.7-1.6,3.8-3.6l0-0.2h7c0.6,0,1.2-0.3,1.5-0.9c0.3-0.5,0.3-1.2,0-1.8l0,0l-1.7-3.3v-8
					c0-4.7-3.2-8.9-7.7-10.2l-0.1,0V252C-339.4,250.5-340.6,249.2-342.2,249.2z M-342.2,281.2c-1.3,0-2.5-1-2.6-2.3l0-0.2h5.2l0,0.2
					C-339.7,280.2-340.8,281.2-342.2,281.2z M-344.3,279.1c0.2,1,1.1,1.8,2.1,1.8s1.9-0.8,2.1-1.8H-344.3z M-331.3,277.5H-353
					c-0.3,0-0.5-0.2-0.5-0.3c-0.1-0.1-0.2-0.3,0-0.6l1.7-3.2h19.3l1.7,3.2c0.1,0.2,0.1,0.4,0,0.6l0,0
					C-330.9,277.2-331,277.5-331.3,277.5z M-351.6,273.8l-1.6,2.9c0,0.1,0,0.2,0,0.2c0,0,0.1,0.1,0.2,0.1h21.6
					c0.1,0,0.2-0.1,0.2-0.1c0-0.1,0-0.1,0-0.2l-1.6-2.9H-351.6z M-332.7,272.2h-18.9v-7.5c0-5.2,4.2-9.5,9.5-9.5
					c5.2,0,9.5,4.2,9.5,9.5V272.2z M-351.2,271.8h18.1v-7.1c0-5-4.1-9.1-9.1-9.1c-5,0-9.1,4.1-9.1,9.1V271.8z M-340.5,254.2l-0.2,0
					c-0.9-0.1-1.9-0.1-2.8,0l-0.2,0V252c0-0.9,0.7-1.6,1.6-1.6s1.6,0.7,1.6,1.6V254.2z M-342.2,253.6c0.4,0,0.8,0,1.2,0.1V252
					c0-0.7-0.5-1.2-1.2-1.2s-1.2,0.5-1.2,1.2v1.7C-343,253.7-342.6,253.6-342.2,253.6z"/>
			</g>
		</g>
	</g>
</g>
<g>
	<path d="M-376.7,265.4c0,20.1,13.3,37.5,33.2,43.3c0.2,0.1,0.4,0.1,0.5,0c19.8-5.8,33.2-23.2,33.2-43.3v-25.8
		c0-0.5-0.4-0.8-0.9-0.8c-4.9,0-8.9-3.9-8.9-8.6c0-0.5-0.4-0.8-0.9-0.8H-366c-0.5,0-0.9,0.4-0.9,0.8c0,4.8-4,8.6-8.9,8.6
		c-0.5,0-0.9,0.4-0.9,0.8V265.4z M-374.9,240.5l0.6-0.1c4.6-0.7,8.4-4.2,9-8.7l0.1-0.6h43.8l0.1,0.6c0.7,4.5,4.4,8.1,9,8.7l0.6,0.1
		v24.9c0,19.1-12.6,35.8-31.4,41.5l-0.2,0.1l-0.2-0.1c-18.8-5.7-31.4-22.4-31.4-41.5V240.5z"/>
</g>
<g>
	<path d="M-369.7,243.8c-0.3,0.1-0.6,0.5-0.6,0.8v20.8c0,16.7,10.5,31.1,26.7,36.7c0.2,0.1,0.5,0.1,0.6,0
		c16.2-5.6,26.7-20,26.7-36.7v-20.8c0-0.4-0.2-0.7-0.6-0.8c-3.5-1.5-6.4-4.2-7.9-7.7c-0.1-0.3-0.5-0.5-0.9-0.5h-35.3
		c-0.4,0-0.7,0.2-0.9,0.5C-363.3,239.6-366.1,242.3-369.7,243.8z M-360.4,237.7l0.2-0.4h34l0.2,0.4c1.7,3.2,4.3,5.7,7.5,7.3l0.4,0.2
		v20.2c0,15.7-9.8,29.3-24.9,34.8l-0.2,0.1l-0.2-0.1c-15.1-5.4-24.9-19.1-24.9-34.8v-20.2l0.4-0.2
		C-364.7,243.4-362.1,240.9-360.4,237.7z"/>
</g>
</svg>
