<?xml version="1.0" encoding="utf-8"?>
<!-- Generator: Adobe Illustrator 23.0.6, SVG Export Plug-In . SVG Version: 6.00 Build 0)  -->
<svg version="1.1" id="Capa_1" xmlns="http://www.w3.org/2000/svg" xmlns:xlink="http://www.w3.org/1999/xlink" x="0px" y="0px"
	 viewBox="-459.5 229.3 66.9 79.4" style="enable-background:new -459.5 229.3 66.9 79.4;" xml:space="preserve">
<g>
	<path d="M-459.5,265.4c0,20.1,13.3,37.5,33.2,43.3c0.2,0.1,0.4,0.1,0.5,0c19.8-5.8,33.2-23.2,33.2-43.3v-25.8
		c0-0.5-0.4-0.8-0.9-0.8c-4.9,0-8.9-3.9-8.9-8.6c0-0.5-0.4-0.8-0.9-0.8h-45.6c-0.5,0-0.9,0.4-0.9,0.8c0,4.8-4,8.6-8.9,8.6
		c-0.5,0-0.9,0.4-0.9,0.8V265.4z M-457.7,240.5l0.6-0.1c4.6-0.7,8.4-4.2,9-8.7l0.1-0.6h43.8l0.1,0.6c0.7,4.5,4.4,8.1,9,8.7l0.6,0.1
		v24.9c0,19.1-12.6,35.8-31.4,41.5l-0.2,0.1l-0.2-0.1c-18.8-5.7-31.4-22.4-31.4-41.5V240.5z"/>
</g>
<g>
	<path d="M-452.4,243.8c-0.3,0.1-0.6,0.5-0.6,0.8v20.8c0,16.7,10.5,31.1,26.7,36.7c0.2,0.1,0.5,0.1,0.6,0
		c16.2-5.6,26.7-20,26.7-36.7v-20.8c0-0.4-0.2-0.7-0.6-0.8c-3.5-1.5-6.4-4.2-7.9-7.7c-0.1-0.3-0.5-0.5-0.9-0.5h-35.3
		c-0.4,0-0.7,0.2-0.9,0.5C-446.1,239.6-448.9,242.3-452.4,243.8z M-443.2,237.7l0.2-0.4h34l0.2,0.4c1.7,3.2,4.3,5.7,7.5,7.3l0.4,0.2
		v20.2c0,15.7-9.8,29.3-24.9,34.8l-0.2,0.1l-0.2-0.1c-15.1-5.4-24.9-19.1-24.9-34.8v-20.2l0.4-0.2
		C-447.5,243.4-444.9,240.9-443.2,237.7z"/>
</g>
<g>
	<g>
		<path d="M-420.1,260.2V255c0-3.4-2.8-6.2-6.2-6.2c-3.4,0-6.2,2.8-6.2,6.2v5.2h-5c0.8,0.6,1.4,1.5,1.9,2.6v-0.5h18.6v0.3
			c0.5-0.9,1.2-1.7,2.1-2.2v-0.1H-420.1z M-422.1,260.2h-8.3V255c0-2.3,1.9-4.1,4.1-4.1c2.3,0,4.1,1.9,4.1,4.1V260.2z"/>
	</g>
	<g>
		<path d="M-427.3,273.5v2.2c0,0.6,0.5,1,1,1c0.6,0,1-0.5,1-1v-2.2c1.8-0.5,3.1-2.1,3.1-4c0-2.3-1.9-4.1-4.1-4.1
			c-2.3,0-4.1,1.9-4.1,4.1C-430.4,271.5-429.1,273.1-427.3,273.5z M-426.3,267.5c1.1,0,2.1,0.9,2.1,2.1c0,1.1-0.9,2.1-2.1,2.1
			s-2.1-0.9-2.1-2.1C-428.3,268.4-427.4,267.5-426.3,267.5z"/>
	</g>
</g>
<g>
	<path d="M-426.3,283.9c-6.4,0-11.6-5.2-11.6-11.6v-12.1h2.4v12.1c0,5,4.1,9.2,9.2,9.2s9.2-4.1,9.2-9.2v-12.1h2.4v12.1
		C-414.7,278.7-419.9,283.9-426.3,283.9z"/>
</g>
</svg>
